<?xml version="1.0" encoding="utf-8"?>
<!-- Generator: Adobe Illustrator 21.0.0, SVG Export Plug-In . SVG Version: 6.00 Build 0)  -->
<svg version="1.1" id="图层_1" xmlns="http://www.w3.org/2000/svg" xmlns:xlink="http://www.w3.org/1999/xlink" x="0px" y="0px"
	 viewBox="0 0 24 24" style="enable-background:new 0 0 24 24;" xml:space="preserve">
<style type="text/css">
	.st0{display:none;fill:#EF5E5E;}
	.st1{display:none;fill:none;stroke:#FFFFFF;stroke-miterlimit:10;}
	.st2{display:none;}
	.st3{display:inline;fill:none;stroke:#FFFFFF;stroke-miterlimit:10;}
	.st4{display:inline;fill:none;stroke:#FFFFFF;stroke-width:0.75;stroke-miterlimit:10;}
	.st5{display:none;fill:#F4810A;}
	.st6{display:none;fill:#FFFFFF;}
	.st7{display:inline;fill:#FFFFFF;}
	.st8{display:inline;fill:#E87489;fill-opacity:0.3;}
	.st9{display:inline;fill:#E87489;fill-opacity:0.7;}
	.st10{fill:#FFFFFF;}
	.st11{fill:none;stroke:#FFFFFF;stroke-miterlimit:10;}
</style>
<rect x="2" y="2" class="st0" width="20" height="20"/>
<circle class="st0" cx="12" cy="12" r="12"/>
<path id="pen_x5F_white" class="st1" d="M6.2,4.5c0,0,5.3,3.9,5.6,5.9c0.3,1.6-3.3,4.4-2.8,5.9c0.7,2.2,8.8,3.1,8.8,3.1"/>
<line id="line_x5F_white" class="st1" x1="6.5" y1="4.3" x2="17.5" y2="19.6"/>
<g id="highlighter_x5F_white" class="st2">
	<polygon class="st3" points="14.1,5.4 19.2,10.3 13.8,15.6 8.7,10.8 	"/>
	<polygon class="st3" points="7.5,15.1 9.4,17.2 10.5,16.2 13.3,15.4 9.1,11.3 8.3,14 	"/>
	<polygon class="st4" points="8.2,17.8 6.7,16.2 4.8,17.9 7.1,18.6 	"/>
</g>
<path id="Pan_and_Zoom_x5F_orange" class="st5" d="M17.6,7.2c-0.3,0-0.6,0.1-0.8,0.2v-1c0-0.9-0.7-1.6-1.6-1.6
	c-0.3,0-0.6,0.1-0.9,0.3C14.1,4.5,13.5,4,12.8,4s-1.3,0.4-1.5,1.1c-0.3-0.2-0.6-0.3-0.9-0.3c-0.9,0-1.6,0.7-1.6,1.6v5.9l-1.1-1.9
	c-0.2-0.4-0.5-0.6-1-0.8c-0.3,0-0.7,0-1.1,0.3c-0.7,0.4-1,1.4-0.6,2.2c0,0,0.5,1.1,2.1,4.3c0.7,1.5,1.6,2.6,2.4,3.2
	c0.7,0.5,1.2,0.5,1.2,0.5h4c0.7,0,1.3-0.2,1.9-0.7c0.5-0.4,1-1,1.4-1.8c0.7-1.5,1.1-3.6,1.1-6V8.8C19.2,7.9,18.5,7.2,17.6,7.2
	L17.6,7.2z M18.4,11.6c0,2.3-0.4,4.2-1.1,5.6c-0.5,0.9-1.3,2-2.5,2h-4c0,0-0.4,0-0.9-0.4S8.6,17.6,7.8,16c-1.6-3.2-2.1-4.3-2.1-4.3
	l0,0c-0.2-0.4-0.1-0.9,0.3-1.1c0.2-0.1,0.4-0.1,0.5-0.1c0.2,0.1,0.4,0.2,0.5,0.4l0,0L8.3,13c0.3,0.5,0.5,0.7,0.9,0.6
	c0.3-0.1,0.5-0.4,0.5-0.9V6.4c0-0.4,0.4-0.8,0.8-0.8s0.8,0.4,0.8,0.8v5.2c0,0.2,0.2,0.4,0.4,0.4s0.4-0.2,0.4-0.4v-6
	c0-0.4,0.4-0.8,0.8-0.8c0.4,0,0.8,0.4,0.8,0.8v6c0,0.2,0.2,0.4,0.4,0.4s0.4-0.2,0.4-0.4V6.4c0-0.4,0.4-0.8,0.8-0.8
	C15.6,5.6,16,6,16,6.4v6c0,0.2,0.2,0.4,0.4,0.4s0.4-0.2,0.4-0.4V8.8c0-0.4,0.4-0.8,0.8-0.8s0.8,0.4,0.8,0.8L18.4,11.6L18.4,11.6z"/>
<g id="Clear_all_annotation_x5F_white" class="st2">
	<path class="st3" d="M19.6,4.4L4.4,19.6"/>
	<path class="st3" d="M4.4,4.4l15.2,15.2"/>
</g>
<path id="Play_x5F_white" class="st6" d="M17.4,10.8l-4.8-3.4L8.1,4.2C7.2,3.6,6,4.3,6,5.5V12v6.5c0,1.2,1.2,1.9,2.1,1.2l4.4-3.2
	l4.8-3.5C18.2,12.6,18.2,11.4,17.4,10.8z M16.7,12.5l-4.5,3.1l-4.1,2.8c-1,0.8-1.1,0.8-1.1-0.7V12V6.3c0-1.5,0-1.5,1.1-0.7l4.1,2.9
	l4.5,3.1C17,11.8,17,12.2,16.7,12.5z"/>
<path id="Stop_Record_x5F_white" class="st1" d="M17.6,19.5H6.4c-0.6,0-1.1-0.5-1.1-1.1V5.7c0-0.6,0.5-1.1,1.1-1.1h11.3
	c0.6,0,1.1,0.5,1.1,1.1v12.7C18.8,19,18.3,19.5,17.6,19.5z"/>
<g class="st2">
	<path class="st3" d="M6.3,4.5h4.3v14.9H6.3V4.5z"/>
	<path class="st3" d="M17.8,4.5v14.9h-4.3V4.5H17.8z"/>
</g>
<path id="Rectangle_x5F_white" class="st6" d="M4.5,5.9v12.5h15V5.9H4.5z M18.5,17.4h-13V6.9h13V17.4z"/>
<g id="text_x5F_white" class="st2">
	<path class="st7" d="M14.4,19.5c1.4-0.2,1.9-0.3,1.9-0.9s-0.7-2.5-1.6-4.8H9c-0.2,0.5-1.5,3.8-1.5,4.5c0,0.8,0.7,1,2,1.2v0.3H4
		v-0.3c1.7-0.3,2-0.6,2.9-2.8l5.3-12.4l0.3-0.1l1.6,4.5c1.1,3,2.2,6.1,3.1,8.4c0.7,1.8,0.9,2.1,2.6,2.3v0.3h-5.6v-0.2H14.4z M12,6.5
		C11,8.7,10.1,11,9.3,13h5.1L12,6.5L12,6.5z"/>
</g>
<path id="next_x5F_orange" class="st5" d="M5,13.2c0-2.2,1.8-4,4-4h5.7v2.4L20,8.7l-1-0.5l0,0l0,0l-4.3-2.3v2.3H8.5
	C6,8.2,4,10.2,4,12.7v1c0,2.5,2,4.5,4.5,4.5H19v-1H9C6.8,17.2,5,15.4,5,13.2z"/>
<path id="return_x5F_orange" class="st5" d="M19,13.2c0-2.2-1.8-4-4-4H9.3v2.4L4,8.7l1-0.5l0,0l0,0l4.3-2.3v2.3h6.2
	c2.5,0,4.5,2,4.5,4.5v1c0,2.5-2,4.5-4.5,4.5H5v-1h10C17.2,17.2,19,15.4,19,13.2z"/>
<polygon id="done_x5F_orange" class="st5" points="20,6.9 19.3,6.2 9.3,16.3 4.7,11.7 4,12.4 9.3,17.7 9.9,17 "/>
<circle id="Circle_x5F_white" class="st1" cx="12" cy="12" r="7.5"/>
<polygon class="st1" points="12,7 5,17 19,17 "/>
<g id="Image" class="st2">
	<path class="st7" d="M19.4,5.1H4.6C4.3,5.1,4,5.4,4,5.7v12.5c0,0.3,0.2,0.6,0.6,0.6h14.8c0.3,0,0.6-0.2,0.6-0.6V5.7
		C20,5.4,19.7,5.1,19.4,5.1z M11.8,17.7l3-3.1l3.2,3.1C18.1,17.7,11.8,17.7,11.8,17.7z M18.8,16.9L14.7,13l-4.5,4.7H5.9l4.7-4.6
		l2.6,2.5l0.7-0.8l-3.4-3.2l-5.4,5.2V6.2h13.7V16.9L18.8,16.9z"/>
	<path class="st3" d="M12,9c0,0.9,0.7,1.6,1.6,1.6c0.9,0,1.6-0.7,1.6-1.6l0,0c0-0.9-0.7-1.6-1.6-1.6C12.8,7.3,12,8.1,12,9L12,9z"/>
</g>
<g id="pointer_x5F_red" class="st2">
	<circle class="st8" cx="12" cy="12" r="8"/>
	<circle class="st9" cx="12" cy="12" r="6"/>
</g>
<g id="Brush_marks_x5F_white">
	<path id="Rectangle_x5F_white_1_" class="st10" d="M4.5,5.8v12.5h15V5.8H4.5z M18.5,17.3h-13V6.8h13V17.3z"/>
	<path class="st11" d="M8.6,8c0,0,2.9,2.1,3,3.2c0.2,0.9-1.8,2.4-1.5,3.2c0.4,1.2,4.8,1.7,4.8,1.7"/>
</g>
</svg>
