<?xml version="1.0" encoding="utf-8"?>
<!-- Generator: Adobe Illustrator 21.0.0, SVG Export Plug-In . SVG Version: 6.00 Build 0)  -->
<svg version="1.1" id="图层_1" xmlns="http://www.w3.org/2000/svg" xmlns:xlink="http://www.w3.org/1999/xlink" x="0px" y="0px"
	 viewBox="0 0 24 24" style="enable-background:new 0 0 24 24;" xml:space="preserve">
<style type="text/css">
	.st0{display:none;fill:#EF5E5E;}
	.st1{display:none;fill:none;stroke:#FFFFFF;stroke-miterlimit:10;}
	.st2{fill:none;stroke:#FFFFFF;stroke-miterlimit:10;}
	.st3{display:none;}
	.st4{display:inline;fill:none;stroke:#FFFFFF;stroke-miterlimit:10;}
	.st5{display:inline;fill:none;stroke:#FFFFFF;stroke-width:0.75;stroke-miterlimit:10;}
	.st6{display:none;fill:#F4810A;}
	.st7{display:none;fill:#FFFFFF;}
	.st8{display:inline;fill:#FFFFFF;}
	.st9{display:inline;fill:#E87489;fill-opacity:0.3;}
	.st10{display:inline;fill:#E87489;fill-opacity:0.7;}
</style>
<rect x="2" y="2" class="st0" width="20" height="20"/>
<circle class="st0" cx="12" cy="12" r="12"/>
<path id="pen_x5F_white" class="st1" d="M6.2,4.5c0,0,5.3,3.9,5.6,5.9c0.3,1.6-3.3,4.4-2.8,5.9c0.7,2.2,8.8,3.1,8.8,3.1"/>
<line id="line_x5F_white" class="st2" x1="6.5" y1="4.3" x2="17.5" y2="19.6"/>
<g id="highlighter_x5F_white" class="st3">
	<polygon class="st4" points="14.1,5.4 19.2,10.3 13.8,15.6 8.7,10.8 	"/>
	<polygon class="st4" points="7.5,15.1 9.4,17.2 10.5,16.2 13.3,15.4 9.1,11.3 8.3,14 	"/>
	<polygon class="st5" points="8.2,17.8 6.7,16.2 4.8,17.9 7.1,18.6 	"/>
</g>
<path id="Pan_and_Zoom_x5F_orange" class="st6" d="M17.6,7.2c-0.3,0-0.6,0.1-0.8,0.2v-1c0-0.9-0.7-1.6-1.6-1.6
	c-0.3,0-0.6,0.1-0.9,0.3C14.1,4.5,13.5,4,12.8,4s-1.3,0.4-1.5,1.1c-0.3-0.2-0.6-0.3-0.9-0.3c-0.9,0-1.6,0.7-1.6,1.6v5.9l-1.1-1.9
	c-0.2-0.4-0.5-0.6-1-0.8C6.4,9.6,6,9.6,5.6,9.9c-0.7,0.4-1,1.4-0.6,2.2c0,0,0.5,1.1,2.1,4.3c0.7,1.5,1.6,2.6,2.4,3.2
	c0.7,0.5,1.2,0.5,1.2,0.5h4c0.7,0,1.3-0.2,1.9-0.7c0.5-0.4,1-1,1.4-1.8c0.7-1.5,1.1-3.6,1.1-6V8.8C19.2,7.9,18.5,7.2,17.6,7.2
	L17.6,7.2z M18.4,11.6c0,2.3-0.4,4.2-1.1,5.6c-0.5,0.9-1.3,2-2.5,2h-4c0,0-0.4,0-0.9-0.4c-0.5-0.4-1.3-1.2-2.1-2.8
	c-1.6-3.2-2.1-4.3-2.1-4.3c0,0,0,0,0,0c-0.2-0.4-0.1-0.9,0.3-1.1c0.2-0.1,0.4-0.1,0.5-0.1c0.2,0.1,0.4,0.2,0.5,0.4c0,0,0,0,0,0
	L8.3,13c0.3,0.5,0.5,0.7,0.9,0.6c0.3-0.1,0.5-0.4,0.5-0.9V6.4c0-0.4,0.4-0.8,0.8-0.8s0.8,0.4,0.8,0.8v5.2c0,0.2,0.2,0.4,0.4,0.4
	s0.4-0.2,0.4-0.4v-6c0-0.4,0.4-0.8,0.8-0.8c0.4,0,0.8,0.4,0.8,0.8v6c0,0.2,0.2,0.4,0.4,0.4s0.4-0.2,0.4-0.4V6.4
	c0-0.4,0.4-0.8,0.8-0.8C15.6,5.6,16,6,16,6.4v6c0,0.2,0.2,0.4,0.4,0.4s0.4-0.2,0.4-0.4V8.8c0-0.4,0.4-0.8,0.8-0.8
	c0.4,0,0.8,0.4,0.8,0.8L18.4,11.6L18.4,11.6z"/>
<g id="Clear_all_annotation_x5F_white" class="st3">
	<line class="st4" x1="19.6" y1="4.4" x2="4.4" y2="19.6"/>
	<line class="st4" x1="4.4" y1="4.4" x2="19.6" y2="19.6"/>
</g>
<path id="Play_x5F_white" class="st7" d="M17.4,10.8l-4.8-3.4L8.1,4.2C7.2,3.6,6,4.3,6,5.5L6,12l0,6.5c0,1.2,1.2,1.9,2.1,1.2
	l4.4-3.2l4.8-3.5C18.2,12.6,18.2,11.4,17.4,10.8z M16.7,12.5l-4.5,3.1l-4.1,2.8c-1,0.8-1.1,0.8-1.1-0.7l0-5.7l0-5.7
	c0-1.5,0-1.5,1.1-0.7l4.1,2.9l4.5,3.1C17,11.8,17,12.2,16.7,12.5z"/>
<path id="Stop_Record_x5F_white" class="st1" d="M17.6,19.5H6.4c-0.6,0-1.1-0.5-1.1-1.1V5.7c0-0.6,0.5-1.1,1.1-1.1h11.3
	c0.6,0,1.1,0.5,1.1,1.1v12.7C18.8,19,18.3,19.5,17.6,19.5z"/>
<g id="pause_x5F_white" class="st3">
	<rect x="6.3" y="4.5" class="st4" width="4.3" height="14.9"/>
	<rect x="13.5" y="4.5" class="st4" width="4.3" height="14.9"/>
</g>
<g id="Rectangle_x5F_white" class="st3">
	<rect x="4.5" y="5.9" class="st4" width="14.9" height="12.5"/>
	<rect x="4.5" y="5.9" class="st4" width="14.9" height="12.5"/>
	<rect x="4.5" y="5.9" class="st4" width="14.9" height="12.5"/>
</g>
<g id="text_x5F_white" class="st3">
	<path class="st8" d="M14.4,19.5c1.4-0.2,1.9-0.3,1.9-0.9c0-0.6-0.7-2.5-1.6-4.8H9c-0.2,0.5-1.5,3.8-1.5,4.5c0,0.8,0.7,1,2,1.2v0.3
		H4v-0.3c1.7-0.3,2-0.6,2.9-2.8l5.3-12.4l0.3-0.1l1.6,4.5c1.1,3,2.2,6.1,3.1,8.4c0.7,1.8,0.9,2.1,2.6,2.3v0.3h-5.6V19.5z M12,6.5
		c-1,2.2-1.9,4.5-2.7,6.5h5.1L12,6.5L12,6.5z"/>
</g>
<path id="next_x5F_orange" class="st6" d="M5,13.2c0-2.2,1.8-4,4-4h5.7v2.4L20,8.7L19,8.2v0h0l-4.3-2.3v2.3H8.5
	c-2.5,0-4.5,2-4.5,4.5v1c0,2.5,2,4.5,4.5,4.5H19v-1H9C6.8,17.2,5,15.4,5,13.2z"/>
<path id="return_x5F_orange" class="st6" d="M19,13.2c0-2.2-1.8-4-4-4H9.3v2.4L4,8.7L5,8.2v0h0l4.3-2.3v2.3h6.2c2.5,0,4.5,2,4.5,4.5
	v1c0,2.5-2,4.5-4.5,4.5H5v-1H15C17.2,17.2,19,15.4,19,13.2z"/>
<polygon id="done_x5F_orange" class="st6" points="20,6.9 19.3,6.2 9.3,16.3 4.7,11.7 4,12.4 9.3,17.7 9.9,17 "/>
<circle id="Circle_x5F_white" class="st1" cx="12" cy="12" r="7.5"/>
<polygon class="st1" points="12,7 5,17 19,17 "/>
<g id="Image" class="st3">
	<path class="st8" d="M19.4,5.1H4.6C4.3,5.1,4,5.4,4,5.7v12.5c0,0.3,0.2,0.6,0.6,0.6h14.8c0.3,0,0.6-0.2,0.6-0.6V5.7
		C20,5.4,19.7,5.1,19.4,5.1z M11.8,17.7l3-3.1l3.2,3.1C18.1,17.7,11.8,17.7,11.8,17.7z M18.8,16.9L14.7,13l-4.5,4.7H5.9l4.7-4.6
		l2.6,2.5l0.7-0.8l-3.4-3.2l-5.4,5.2V6.2h13.7L18.8,16.9L18.8,16.9z"/>
	<path class="st4" d="M12,9c0,0.9,0.7,1.6,1.6,1.6c0.9,0,1.6-0.7,1.6-1.6c0,0,0,0,0,0c0-0.9-0.7-1.6-1.6-1.6C12.8,7.3,12,8.1,12,9
		C12,9,12,9,12,9z"/>
</g>
<g id="pointer_x5F_red" class="st3">
	<circle class="st9" cx="12" cy="12" r="8"/>
	<circle class="st10" cx="12" cy="12" r="6"/>
</g>
</svg>
